<?xml version="1.0" encoding="utf-8"?>
<!-- Generator: Adobe Illustrator 16.0.0, SVG Export Plug-In . SVG Version: 6.00 Build 0)  -->
<!DOCTYPE svg PUBLIC "-//W3C//DTD SVG 1.1//EN" "http://www.w3.org/Graphics/SVG/1.1/DTD/svg11.dtd">
<svg version="1.1" id="图层_1" xmlns="http://www.w3.org/2000/svg" xmlns:xlink="http://www.w3.org/1999/xlink" x="0px" y="0px"
	 width="20px" height="20px" viewBox="0 0 20 20" enable-background="new 0 0 20 20" xml:space="preserve">
<path fill="#4EB2F3" d="M17.069,7.52h-2.047V5.012C15.022,5.012,15.471,0,10,0c0,0-4.963,0-4.963,5.042V7.52H2.931
	c-0.569,0-1.034,0.465-1.034,1.034v10.412C1.897,19.535,2.362,20,2.931,20h14.138c0.568,0,1.034-0.465,1.034-1.034V8.554
	C18.103,7.985,17.637,7.52,17.069,7.52z M6.893,7.52V5.042c0,0-0.039-3.166,3.205-3.166c0,0,3.058-0.098,3.058,3.126V7.52H6.893z"/>
</svg>
