<?xml version="1.0" encoding="utf-8"?>
<!-- Generator: Adobe Illustrator 16.0.0, SVG Export Plug-In . SVG Version: 6.00 Build 0)  -->
<!DOCTYPE svg PUBLIC "-//W3C//DTD SVG 1.1//EN" "http://www.w3.org/Graphics/SVG/1.1/DTD/svg11.dtd">
<svg version="1.1" id="图层_1" xmlns="http://www.w3.org/2000/svg" xmlns:xlink="http://www.w3.org/1999/xlink" x="0px" y="0px"
	 width="20px" height="20px" viewBox="0 0 20 20" enable-background="new 0 0 20 20" xml:space="preserve">
<path fill="#4EB2F3" d="M19.167,16.628c0-2.944-0.691-7.461-4.505-7.461c-0.404,0-2.111,1.81-4.662,1.81
	c-2.553,0-4.258-1.81-4.662-1.81c-3.814,0-4.505,4.518-4.505,7.461C0.833,18.736,2.239,20,4.309,20h11.38
	C17.76,20,19.167,18.736,19.167,16.628z M15,5c0-2.76-2.24-5-5-5S5,2.24,5,5s2.24,5,5,5S15,7.76,15,5z"/>
</svg>
